<?xml version="1.0" standalone="no"?>
<!DOCTYPE svg PUBLIC "-//W3C//DTD SVG 20010904//EN"
 "http://www.w3.org/TR/2001/REC-SVG-20010904/DTD/svg10.dtd">
<svg version="1.0" xmlns="http://www.w3.org/2000/svg"
 width="1024.000000pt" height="1024.000000pt" viewBox="0 0 1024.000000 1024.000000"
 preserveAspectRatio="xMidYMid meet">

<g transform="translate(0.000000,1024.000000) scale(0.100000,-0.100000)"
fill="#000000" stroke="none">
<path d="M2970 8584 c-177 -18 -261 -30 -356 -54 -123 -31 -274 -88 -274 -102
0 -5 -5 -6 -10 -3 -6 3 -13 -1 -16 -9 -3 -9 -9 -14 -13 -11 -4 2 -24 -7 -44
-21 -20 -14 -37 -22 -37 -19 0 6 -14 -5 -47 -35 -9 -8 -18 -13 -19 -10 -1 3
-16 -7 -33 -22 -17 -16 -35 -28 -40 -28 -6 0 -13 -5 -17 -12 -5 -7 -3 -8 6 -3
9 5 11 4 6 -3 -4 -7 -14 -12 -21 -12 -19 0 -158 -143 -181 -186 -10 -19 -22
-34 -26 -34 -4 0 -12 -10 -19 -21 -9 -17 -8 -20 3 -14 7 4 3 -2 -10 -14 -12
-12 -20 -26 -17 -31 3 -4 -2 -10 -10 -13 -15 -6 -52 -80 -80 -162 -9 -27 -20
-57 -22 -65 -3 -8 -7 -33 -10 -55 -2 -22 -7 -49 -12 -60 -11 -27 -37 -147 -57
-270 -15 -90 -17 -305 -21 -2105 -5 -2043 -3 -2199 33 -2434 45 -301 194 -603
384 -780 184 -170 441 -285 744 -333 104 -17 254 -18 2276 -18 2245 0 2293 1
2540 41 117 19 313 83 400 130 165 91 336 245 433 392 101 152 188 377 222
577 33 195 36 416 33 2480 -4 2026 -4 2041 -25 2170 -39 234 -128 454 -260
636 -181 252 -508 434 -889 495 -101 17 -266 18 -2294 20 -1202 0 -2201 0
-2220 -2z m2592 -1627 c40 -20 107 -66 148 -103 41 -37 356 -342 700 -678 343
-336 753 -736 910 -890 304 -297 365 -362 387 -413 33 -81 -2 -205 -75 -261
-72 -55 -187 -29 -288 64 -27 24 -54 44 -61 44 -7 0 -10 7 -6 17 5 12 2 15
-10 10 -9 -3 -16 -3 -16 1 4 21 -3 32 -19 32 -10 0 -36 19 -58 43 -22 23 -56
56 -76 74 -20 17 -34 34 -31 37 4 3 1 6 -6 6 -7 0 -54 40 -104 88 -51 48 -141
135 -202 192 -143 135 -278 266 -800 776 -463 453 -461 451 -556 442 -58 -6
-89 -26 -191 -124 -198 -189 -1074 -1020 -1223 -1159 -962 -902 -993 -932
-1039 -1022 -38 -75 -9 -179 66 -233 92 -67 -21 -64 1785 -57 l1633 5 51 -25
c132 -66 150 -240 35 -341 -20 -17 -53 -35 -73 -41 -57 -14 -3223 -15 -3338
-1 -485 60 -742 509 -531 927 69 138 138 210 743 783 149 140 282 273 297 295
l26 39 0 431 0 431 26 52 c72 145 231 179 328 72 20 -22 37 -46 38 -53 1 -6 2
-136 3 -287 0 -273 0 -275 21 -275 14 0 175 150 500 465 582 566 642 623 674
640 54 29 107 40 182 37 65 -3 89 -9 150 -40z"/>
</g>
</svg>
